# xmcd CD database file
#
# Track frame offsets:
#	150
#	26317
#	52550
#	73037
#	98357
#	120715
#	146630
#	175917
#	206295
#	230825
#	255627
#	278800
#	302820
#
# Disc length: 4370 seconds
#
# Revision: 0
# Processed by: cddbd v1.5.2PL0 Copyright (c) Steve Scherf et al.
# Submitted via: CDex 1.70beta2
#
DISCID=aa11100d
DTITLE=Candido Fabre - Al Son de la Salsa
DYEAR=1900
DGENRE=Salsa
TTITLE0=Olvidame Que Yo Te Olvide
TTITLE1=Tanto Que Me Quiere, Tanto Que La Quiero
TTITLE2=Guayabita Del Pinar
TTITLE3=Que Voy Hacer Con El Merengue
TTITLE4=A Palo No
TTITLE5=A Cualquiera Se La Bota
TTITLE6=Via Libre Que Viene La Original
TTITLE7=Traigo La Ultima
TTITLE8=Acabo De Llegar
TTITLE9=Sea Lo Que Sea Y Pase Lo Que Pase
TTITLE10=Que Le Pasa A Chacumbele
TTITLE11=El Cinturon Del Taxi
TTITLE12=Soy Cubano Y Soy De Oriente
EXTD=
EXTT0=
EXTT1=
EXTT2=
EXTT3=
EXTT4=
EXTT5=
EXTT6=
EXTT7=
EXTT8=
EXTT9=
EXTT10=
EXTT11=
EXTT12=
PLAYORDER=
